# xmcd
#
# Track frame offsets: 
#        150
#        13738
#        25802
#        39998
#        50879
#        63257
#        75159
#        93179
#        105603
#        118045
#        130053
#        142890
#        154706
#        168004
#        180474
#        192616
#        206253
#        219975
#
# Disc length: 3135 seconds
#
# Revision: 0
# Processed by: cddbd v1.5.2PL0 Copyright (c) Steve Scherf et al.
# Submitted via: ExactAudioCopy v0.99pb3
#
DISCID=e10c3d12
DTITLE=Various Artist - Country Roads - The Best Country CD For Miles CD1
DYEAR=2007
DGENRE=Country
TTITLE0=Glen Campbell - Rhinestone Cowboy
TTITLE1=Tammy Wynette - Til I Get It Right
TTITLE2=B.J. Thomas - I'm So Lonesome I Could Cry
TTITLE3=Dolly Parton - It Wasn't God Who Made Honky Tonk Angels
TTITLE4=Freddy Fender - Wasted Days And Wasted Nights
TTITLE5=Brenda Lee - I'm Sorry
TTITLE6=Willie Nelson - Crazy
TTITLE7=Charlie Rich - Behind Closed Doors
TTITLE8=Porter Wagoner - Satisfied Mind
TTITLE9=Don Gibson - I Can't Stop Loving You
TTITLE10=Johnny Cash - Folsom Prison Blues
TTITLE11=Barbara Fairchild - Cheatin' Is
TTITLE12=Merle Haggard - Holding Things Together
TTITLE13=Kenny Rogers and The First Edition - Reuben James
TTITLE14=David Wills - There's A Song On The Jukebox
TTITLE15=Jimmy Dean - Big Bad John
TTITLE16=George Jones and Tammy Wynette - Golden Ring
TTITLE17=Ed Bruce - Mamas Don't Let Your Babies Grow Up To Be Cowboys
EXTD=
EXTT0=
EXTT1=
EXTT2=
EXTT3=
EXTT4=
EXTT5=
EXTT6=
EXTT7=
EXTT8=
EXTT9=
EXTT10=
EXTT11=
EXTT12=
EXTT13=
EXTT14=
EXTT15=
EXTT16=
EXTT17=
PLAYORDER=
